<svg xmlns="http://www.w3.org/2000/svg" viewBox="0 0 64 64" role="img" aria-label="HP Burn">
  <defs>
    <radialGradient id="g" cx="35%" cy="28%" r="70%">
      <stop offset="0" stop-color="#fff7a8"/>
      <stop offset="0.45" stop-color="#ff8a1f"/>
      <stop offset="1" stop-color="#7b1010"/>
    </radialGradient>
  </defs>
  <rect width="64" height="64" rx="18" fill="#21070a"/>
  <path fill="url(#g)" d="M33 57c-10 0-18-7-18-17 0-8 5-13 10-19 2-3 3-7 2-11 9 4 14 10 14 19 3-2 5-6 5-10 5 5 8 12 8 20 0 11-9 18-21 18Z"/>
  <path fill="#fff6b8" d="M32 52c-5 0-9-4-9-9 0-4 3-7 6-10 1 5 4 7 8 10 2 2 3 5 1 7-1 1-3 2-6 2Z" opacity=".9"/>
</svg>
